<svg width="20" height="20" viewBox="0 0 20 20" fill="none" xmlns="http://www.w3.org/2000/svg">
<g opacity="0.2">
<path fill-rule="evenodd" clip-rule="evenodd" d="M9.75596 4.41073C10.0814 4.73617 10.0814 5.26381 9.75596 5.58925L6.17855 9.16666H15.8334C16.2936 9.16666 16.6667 9.53975 16.6667 9.99999C16.6667 10.4602 16.2936 10.8333 15.8334 10.8333H6.17855L9.75596 14.4107C10.0814 14.7362 10.0814 15.2638 9.75596 15.5892C9.43053 15.9147 8.90289 15.9147 8.57745 15.5892L3.57745 10.5892C3.42117 10.433 3.33337 10.221 3.33337 9.99999C3.33337 9.77898 3.42117 9.56701 3.57745 9.41073L8.57745 4.41073C8.90289 4.0853 9.43053 4.0853 9.75596 4.41073Z" fill="black"/>
</g>
</svg>
