<svg width="20" height="20" viewBox="0 0 20 20" fill="none" xmlns="http://www.w3.org/2000/svg">
<path fill-rule="evenodd" clip-rule="evenodd" d="M10 3.33332C8.15905 3.33332 6.66667 4.82571 6.66667 6.66666C6.66667 8.50761 8.15905 9.99999 10 9.99999C11.8409 9.99999 13.3333 8.50761 13.3333 6.66666C13.3333 4.82571 11.8409 3.33332 10 3.33332ZM5 6.66666C5 3.90523 7.23858 1.66666 10 1.66666C12.7614 1.66666 15 3.90523 15 6.66666C15 9.42808 12.7614 11.6667 10 11.6667C7.23858 11.6667 5 9.42808 5 6.66666ZM6.66667 15C5.28595 15 4.16667 16.1193 4.16667 17.5C4.16667 17.9602 3.79357 18.3333 3.33333 18.3333C2.8731 18.3333 2.5 17.9602 2.5 17.5C2.5 15.1988 4.36548 13.3333 6.66667 13.3333H13.3333C15.6345 13.3333 17.5 15.1988 17.5 17.5C17.5 17.9602 17.1269 18.3333 16.6667 18.3333C16.2064 18.3333 15.8333 17.9602 15.8333 17.5C15.8333 16.1193 14.714 15 13.3333 15H6.66667Z" fill="black"/>
</svg>
